<?xml version="1.0" standalone="no"?>
<!DOCTYPE svg PUBLIC "-//W3C//DTD SVG 20010904//EN"
 "http://www.w3.org/TR/2001/REC-SVG-20010904/DTD/svg10.dtd">
<svg version="1.0" xmlns="http://www.w3.org/2000/svg"
 width="5760.000000pt" height="3240.000000pt" viewBox="0 0 5760.000000 3240.000000"
 preserveAspectRatio="xMidYMid meet">

<g transform="translate(0.000000,3240.000000) scale(0.100000,-0.100000)"
fill="#000000" stroke="none">
<path d="M19330 30120 c-14 -4 -61 -8 -104 -9 -44 -1 -121 -8 -170 -16 -347
-58 -410 -69 -496 -88 -36 -8 -101 -22 -145 -31 -44 -9 -91 -21 -105 -26 -14
-5 -59 -18 -100 -30 -41 -12 -84 -25 -95 -30 -11 -5 -58 -21 -105 -35 -154
-49 -232 -79 -435 -165 -151 -64 -506 -243 -545 -275 -26 -21 -212 -135 -220
-135 -5 0 -16 -8 -26 -17 -10 -10 -58 -46 -108 -81 -203 -141 -459 -366 -662
-582 -143 -154 -387 -482 -454 -613 -12 -23 -33 -60 -45 -82 -33 -56 -91 -176
-121 -249 -30 -74 -36 -88 -63 -147 -12 -25 -21 -52 -21 -60 0 -8 -4 -19 -9
-25 -23 -22 -96 -338 -120 -514 -40 -294 -40 -401 0 -700 32 -243 121 -558
166 -587 18 -12 26 -13 37 -4 25 21 31 -7 37 -169 9 -224 26 -387 53 -535 28
-146 48 -235 57 -250 4 -5 14 -37 24 -70 27 -96 92 -205 122 -205 19 0 117
-102 132 -138 8 -18 17 -32 22 -32 5 0 9 -5 9 -11 0 -6 13 -39 29 -72 15 -34
31 -73 35 -87 4 -14 13 -41 21 -60 12 -32 24 -73 69 -231 9 -31 16 -66 16 -78
0 -13 7 -46 15 -74 16 -59 31 -205 50 -492 7 -110 13 -201 14 -202 0 -1 19 -8
41 -14 33 -10 43 -9 64 4 38 25 85 137 127 302 6 22 14 47 18 55 5 9 12 44 16
78 6 55 9 62 29 62 57 0 144 -104 161 -193 3 -18 10 -41 15 -52 17 -37 84
-237 120 -360 70 -240 184 -491 260 -574 22 -24 40 -47 40 -52 0 -28 285 -279
316 -279 4 0 25 -12 48 -28 91 -61 212 -106 381 -142 118 -26 359 -27 484 -3
183 35 360 108 526 218 76 50 268 242 320 320 22 33 60 87 85 120 25 33 52 71
58 85 7 14 28 50 46 80 61 99 146 278 146 309 0 9 7 29 15 45 8 15 15 42 15
58 0 16 5 39 12 51 6 12 15 38 19 57 14 65 51 215 59 235 11 28 50 199 50 218
0 8 -16 37 -36 63 -85 111 -60 154 109 190 176 37 492 -2 543 -67 16 -20 0
-67 -36 -108 -23 -26 -30 -43 -30 -74 0 -47 30 -186 90 -412 11 -44 28 -107
36 -140 9 -33 22 -75 30 -93 8 -18 14 -40 14 -48 0 -9 6 -28 14 -42 8 -15 33
-65 56 -112 69 -141 158 -278 297 -460 49 -63 222 -228 281 -268 31 -22 82
-51 112 -66 30 -15 62 -31 70 -36 74 -46 235 -97 365 -117 168 -25 237 -26
358 -8 211 31 335 73 492 165 96 56 111 67 190 133 150 127 278 306 362 507 8
19 21 48 29 63 8 16 14 33 14 39 0 5 6 24 14 41 13 31 32 91 76 247 12 41 27
91 35 110 7 19 24 67 37 105 34 104 65 117 67 28 1 -47 63 -275 101 -373 12
-30 25 -66 30 -80 19 -57 88 -166 145 -229 32 -36 93 -71 122 -71 46 1 48 6
55 257 8 285 14 333 74 613 22 101 78 256 132 363 34 67 54 94 86 116 44 31
93 87 118 136 25 49 84 233 103 320 9 44 21 98 27 120 15 55 26 147 38 300 12
147 18 184 28 168 4 -7 20 -17 36 -23 60 -22 79 39 106 335 17 191 10 463 -19
725 -15 130 -71 465 -90 536 -15 56 -41 161 -53 214 -6 25 -14 49 -19 55 -5 5
-9 17 -9 26 0 9 -16 66 -35 126 -19 59 -35 114 -35 121 0 7 -9 34 -21 60 -11
26 -24 56 -29 67 -5 11 -20 52 -35 90 -14 39 -30 79 -35 90 -5 11 -19 45 -30
75 -12 30 -60 134 -107 230 -146 295 -318 561 -462 713 -89 94 -117 81 -202
-93 -109 -221 -132 -268 -159 -320 -16 -30 -80 -161 -143 -290 -159 -327 -167
-343 -177 -360 -6 -8 -33 -64 -61 -125 -28 -60 -55 -117 -60 -125 -5 -8 -41
-80 -80 -160 -38 -80 -77 -158 -86 -175 -9 -16 -40 -79 -71 -140 -79 -160
-117 -236 -135 -270 -9 -16 -39 -79 -67 -140 -29 -60 -56 -117 -61 -125 -5 -8
-40 -80 -79 -160 -39 -80 -79 -162 -90 -182 -11 -21 -20 -56 -20 -80 0 -42 4
-46 180 -226 99 -100 205 -215 237 -254 32 -40 69 -84 83 -98 14 -14 45 -52
70 -85 24 -33 49 -65 55 -72 42 -48 91 -117 230 -325 30 -46 60 -88 65 -95 6
-7 10 -14 10 -17 0 -3 14 -26 31 -51 17 -25 45 -71 61 -103 93 -172 89 -162
54 -162 -14 0 -37 5 -53 11 -68 27 -241 69 -388 94 -49 8 -114 20 -144 25 -30
6 -81 10 -115 10 -33 0 -87 7 -121 15 -106 27 -611 11 -840 -26 -225 -36 -426
-101 -555 -179 -8 -5 -46 -27 -85 -49 -67 -38 -90 -55 -178 -131 -37 -32 -45
-35 -107 -35 -57 0 -73 4 -111 30 -146 97 -319 134 -546 114 -146 -13 -220
-41 -306 -116 -26 -24 -47 -33 -71 -33 -19 0 -38 -4 -41 -10 -7 -12 -65 -14
-65 -2 0 18 -248 194 -314 223 -12 5 -28 13 -36 18 -48 28 -209 90 -305 117
-27 8 -113 25 -190 38 -240 41 -812 45 -1085 6 -236 -33 -461 -85 -580 -133
-14 -5 -38 -13 -55 -17 -16 -5 -68 -22 -115 -39 -121 -44 -123 -44 -116 27 13
115 18 615 8 671 -16 85 -24 195 -15 208 9 12 41 7 148 -22 115 -32 544 -96
775 -116 285 -24 427 -30 810 -35 317 -5 487 -2 720 11 397 21 542 31 560 39
8 3 67 10 130 15 202 17 564 70 613 90 16 6 45 11 65 11 20 0 54 5 75 11 20 5
74 17 120 24 45 8 109 22 142 30 33 8 87 21 120 29 33 8 74 19 90 25 69 24
262 81 277 81 9 0 19 4 23 9 3 5 20 12 38 16 34 7 50 14 220 94 59 28 110 51
113 51 18 0 183 121 238 174 55 53 73 80 124 188 33 69 63 135 67 147 3 11 11
21 16 21 5 0 9 5 9 11 0 6 61 135 137 287 75 152 211 430 303 617 92 187 238
482 323 655 85 173 169 346 187 384 18 39 42 86 54 105 12 20 37 70 55 111 46
101 87 186 117 240 14 25 35 68 47 95 11 28 31 64 44 81 35 46 30 84 -24 172
-94 157 -245 328 -413 470 -30 25 -89 78 -131 117 -149 139 -202 182 -396 325
-48 35 -197 130 -224 143 -8 4 -27 16 -44 27 -41 27 -374 192 -461 228 -39 16
-85 33 -103 37 -18 4 -44 13 -59 21 -15 8 -31 14 -37 14 -5 0 -34 10 -65 21
-85 33 -91 35 -165 57 -61 17 -139 36 -300 72 -98 22 -257 50 -335 61 -46 6
-88 13 -93 16 -34 21 -949 42 -1007 23z m2650 -6118 c104 -9 234 -35 315 -64
77 -27 142 -53 160 -65 11 -7 25 -13 32 -13 33 0 190 -133 230 -196 50 -76
111 -242 147 -396 21 -89 22 -395 1 -453 -8 -22 -15 -50 -15 -63 0 -13 -5 -32
-11 -43 -6 -11 -16 -42 -24 -67 -14 -52 -34 -109 -45 -133 -39 -80 -74 -137
-128 -214 -74 -104 -130 -160 -278 -279 -34 -28 -224 -125 -294 -151 -72 -27
-298 -65 -385 -65 -87 0 -312 38 -385 65 -89 32 -266 126 -331 175 -71 53
-143 122 -222 211 -61 68 -174 236 -189 280 -6 19 -14 39 -18 44 -27 40 -90
267 -90 326 0 26 -4 50 -8 53 -14 8 -21 155 -12 226 25 182 33 219 62 289 27
65 44 89 117 162 91 91 279 215 353 232 33 8 110 35 130 47 10 5 34 14 55 19
215 54 260 62 375 69 70 5 131 12 135 16 8 8 134 3 323 -12z m-3695 -30 c131
-28 228 -52 240 -62 6 -4 34 -13 63 -20 28 -6 55 -16 58 -21 3 -5 14 -9 24 -9
16 0 37 -8 100 -41 180 -93 335 -226 382 -329 52 -112 68 -207 68 -404 0 -186
-21 -314 -75 -461 -15 -38 -29 -79 -32 -90 -4 -11 -9 -22 -13 -25 -4 -3 -20
-27 -35 -55 -45 -78 -99 -157 -136 -196 -19 -19 -48 -52 -65 -71 -29 -33 -101
-100 -166 -154 -46 -39 -205 -125 -333 -179 -136 -59 -465 -76 -652 -35 -109
24 -114 26 -268 101 -254 124 -467 354 -572 619 -31 79 -53 148 -53 168 0 10
-5 23 -10 28 -16 16 -40 196 -40 294 0 92 21 258 38 300 6 14 18 52 28 85 10
33 26 76 36 95 10 19 18 40 18 47 0 26 65 121 119 173 61 59 161 130 183 130
8 0 23 7 34 15 10 8 26 15 34 15 8 0 28 7 44 15 16 9 46 20 65 25 20 5 65 16
101 25 145 38 220 44 470 41 203 -2 262 -7 345 -24z m2049 -342 c28 -10 31
-26 16 -81 -10 -36 -36 -54 -57 -40 -36 23 -39 101 -5 121 21 12 16 12 46 0z
m-950 -27 c32 -63 -30 -136 -68 -81 -19 27 -21 94 -3 101 32 13 57 6 71 -20z"/>
<path d="M21964 18338 c-11 -13 -39 -48 -61 -78 -106 -140 -231 -240 -433
-345 -83 -42 -299 -125 -385 -146 -22 -6 -59 -17 -83 -25 -112 -37 -393 -85
-617 -103 -66 -6 -160 -16 -210 -22 -269 -34 -1009 26 -1370 111 -49 12 -117
28 -150 35 -72 17 -155 40 -210 59 -22 8 -67 22 -100 31 -33 10 -74 24 -92 32
-17 7 -36 13 -41 13 -6 0 -45 16 -89 36 -43 20 -96 44 -118 54 -180 81 -356
180 -448 252 -27 21 -59 40 -70 42 -159 33 -158 33 -382 -44 -66 -22 -196 -65
-290 -96 -93 -30 -181 -60 -194 -65 -27 -11 -297 -101 -426 -142 -101 -32
-142 -47 -180 -63 -29 -12 -228 -77 -270 -88 -11 -2 -92 -30 -180 -61 -156
-55 -211 -73 -306 -100 -25 -7 -74 -24 -110 -38 -73 -28 -183 -66 -379 -127
-74 -24 -148 -48 -165 -55 -16 -7 -82 -30 -145 -50 -63 -21 -151 -50 -196 -66
-44 -16 -87 -29 -95 -29 -8 0 -23 -6 -34 -14 -24 -16 -91 -37 -250 -76 -187
-45 -208 -51 -240 -65 -16 -7 -49 -20 -72 -29 -95 -36 -133 -52 -242 -103
-167 -78 -387 -215 -515 -319 -156 -127 -324 -294 -433 -431 -43 -54 -80 -100
-83 -103 -10 -10 -119 -176 -150 -230 -30 -51 -65 -114 -111 -200 -26 -50 -76
-161 -92 -206 -8 -22 -26 -73 -41 -114 -15 -41 -33 -88 -40 -105 -51 -117
-128 -491 -156 -750 -15 -146 -14 -584 3 -590 6 -3 539 -10 1182 -16 644 -5
1287 -14 1430 -19 143 -5 627 -9 1075 -10 448 0 887 -5 975 -11 88 -5 504 -12
925 -14 421 -3 1161 -10 1645 -16 484 -5 1479 -14 2210 -19 732 -5 1407 -13
1500 -19 94 -5 629 -13 1190 -16 561 -3 1076 -10 1145 -15 69 -5 492 -11 940
-15 448 -3 1070 -10 1382 -16 313 -6 583 -8 603 -5 30 6 35 11 40 44 4 20 11
51 15 67 29 101 43 573 21 740 -13 109 -40 244 -72 370 -11 44 -24 98 -30 120
-16 64 -72 223 -89 253 -5 9 -23 51 -40 92 -200 485 -637 995 -1101 1286 -218
137 -556 283 -738 320 -19 3 -68 20 -110 36 -42 16 -92 35 -111 43 -19 7 -116
39 -215 71 -99 31 -184 61 -190 64 -5 4 -21 11 -35 15 -14 4 -61 19 -105 35
-44 15 -116 39 -160 53 -44 14 -105 35 -135 47 -30 12 -138 48 -240 81 -102
33 -201 67 -220 74 -113 44 -206 77 -285 101 -49 15 -94 30 -100 34 -5 4 -21
10 -35 13 -31 7 -105 33 -147 52 -17 8 -38 15 -47 15 -8 0 -30 6 -48 14 -18 8
-89 33 -158 55 -69 22 -150 50 -180 61 -82 31 -171 62 -205 70 -16 5 -100 33
-185 63 -85 30 -200 70 -255 89 -55 20 -136 47 -180 62 -44 14 -132 44 -195
66 -63 22 -151 52 -195 66 -44 14 -94 32 -112 40 -46 21 -86 18 -109 -8z"/>
<path d="M15075 11980 c-3 -5 -28 -10 -56 -10 -37 0 -49 -4 -49 -15 0 -12 -14
-15 -70 -15 l-70 0 0 -35 c0 -28 -4 -35 -19 -35 -10 0 -24 -7 -31 -15 -7 -8
-28 -15 -46 -15 -24 0 -34 -5 -34 -15 0 -8 -7 -15 -15 -15 -8 0 -15 -9 -15
-20 0 -13 -7 -20 -20 -20 -11 0 -20 -7 -20 -15 0 -8 -7 -15 -15 -15 -8 0 -15
-8 -15 -18 0 -23 -30 -52 -53 -52 -10 0 -17 -8 -17 -19 0 -10 -7 -24 -15 -31
-8 -7 -15 -21 -15 -31 0 -11 -7 -19 -15 -19 -10 0 -15 -10 -15 -30 0 -22 -5
-30 -18 -30 -23 0 -52 -30 -52 -53 0 -9 -7 -17 -15 -17 -10 0 -15 -10 -15 -33
0 -22 -8 -41 -21 -53 -27 -24 -49 -78 -49 -120 0 -24 -5 -34 -15 -34 -8 0 -15
-6 -15 -13 0 -7 -16 -28 -35 -47 -26 -25 -35 -43 -35 -66 0 -17 -7 -37 -15
-44 -9 -7 -15 -29 -15 -51 0 -32 -3 -39 -20 -39 -16 0 -20 -7 -20 -35 0 -22
-5 -35 -13 -35 -17 0 -47 -84 -47 -130 0 -24 -6 -39 -20 -48 -11 -7 -20 -21
-20 -31 0 -10 -7 -35 -15 -54 -8 -20 -15 -52 -15 -72 0 -28 -4 -35 -20 -35
-16 0 -20 -7 -20 -30 0 -20 -5 -30 -15 -30 -10 0 -15 -11 -15 -35 0 -24 -5
-35 -15 -35 -8 0 -15 -6 -15 -13 0 -7 -9 -23 -20 -35 -11 -12 -20 -35 -20 -52
0 -17 -7 -47 -15 -67 -8 -19 -15 -57 -15 -84 0 -37 -4 -49 -15 -49 -10 0 -15
-11 -15 -35 0 -28 -4 -35 -20 -35 -17 0 -20 -7 -20 -50 0 -38 -4 -50 -15 -50
-8 0 -15 -9 -15 -19 0 -10 -7 -21 -15 -25 -8 -3 -15 -15 -15 -26 0 -18 -9 -41
-55 -145 -31 -70 -45 -118 -45 -150 0 -28 -4 -35 -20 -35 -16 0 -20 -7 -20
-34 0 -18 -7 -39 -15 -46 -8 -7 -15 -21 -15 -31 0 -11 -4 -27 -9 -37 -6 -9
-13 -38 -16 -64 -5 -39 -10 -48 -26 -48 -13 0 -19 -7 -19 -24 0 -13 -7 -29
-15 -36 -8 -7 -15 -28 -15 -46 0 -24 -5 -34 -15 -34 -10 0 -15 -11 -15 -35 0
-21 -6 -37 -17 -43 -17 -10 -41 -79 -50 -147 -3 -22 -16 -53 -30 -69 -15 -18
-22 -35 -17 -45 18 -43 17 -61 -5 -61 -17 0 -21 -6 -21 -30 0 -20 -5 -30 -15
-30 -8 0 -15 -8 -15 -19 0 -10 -7 -24 -15 -31 -8 -7 -15 -20 -15 -29 0 -10 -9
-36 -20 -59 -11 -22 -20 -61 -20 -87 0 -37 -3 -45 -18 -45 -10 0 -23 -10 -29
-22 -24 -52 -33 -80 -33 -103 0 -13 -4 -27 -10 -30 -5 -3 -10 -22 -10 -41 0
-24 -5 -34 -15 -34 -10 0 -15 -10 -15 -34 0 -18 -7 -50 -15 -69 -8 -20 -15
-50 -15 -67 0 -23 -4 -30 -20 -30 -16 0 -20 -7 -20 -35 0 -24 -5 -35 -15 -35
-10 0 -15 -11 -15 -35 0 -24 -5 -35 -15 -35 -10 0 -15 -10 -15 -30 0 -23 -4
-30 -20 -30 -16 0 -20 -7 -20 -35 0 -20 -7 -52 -15 -72 -8 -19 -15 -43 -15
-53 0 -10 -7 -23 -15 -30 -11 -9 -15 -32 -15 -81 0 -62 -2 -69 -20 -69 -16 0
-20 -7 -20 -30 0 -20 -5 -30 -15 -30 -11 0 -15 -12 -15 -50 0 -38 -4 -50 -15
-50 -11 0 -15 -13 -15 -54 0 -30 -4 -57 -9 -60 -12 -8 -22 -66 -28 -168 -3
-67 -8 -88 -19 -88 -12 0 -14 -40 -14 -250 0 -216 2 -250 15 -250 12 0 15 -14
15 -70 0 -59 3 -72 20 -82 13 -9 20 -24 20 -45 0 -23 5 -33 15 -33 8 0 15 -8
15 -18 0 -23 30 -52 53 -52 13 0 17 -9 17 -39 0 -22 6 -44 15 -51 8 -7 15 -20
15 -30 0 -26 33 -50 68 -50 22 0 32 -5 32 -15 0 -8 7 -15 15 -15 8 0 15 -7 15
-15 0 -8 9 -15 20 -15 13 0 20 -7 20 -20 0 -16 7 -20 30 -20 20 0 30 -5 30
-15 0 -11 13 -15 53 -15 29 0 58 -5 65 -12 7 -7 30 -13 52 -13 l40 -1 0 83 c0
54 -5 94 -15 112 -8 17 -15 65 -17 124 -3 79 0 98 15 114 9 11 17 28 17 37 0
10 6 30 13 44 43 84 69 147 107 262 16 47 39 110 50 140 12 30 25 66 30 80 4
14 15 39 24 55 9 17 16 37 16 45 0 9 4 20 9 25 5 6 21 46 36 90 14 44 30 88
35 97 6 10 10 23 10 30 0 7 6 25 14 40 8 14 19 43 26 63 7 20 18 49 26 63 8
15 14 34 14 42 0 9 4 20 9 25 5 6 14 26 19 45 6 19 16 51 23 70 33 94 52 147
60 165 19 48 49 124 69 180 12 33 26 67 30 75 4 9 10 29 14 46 8 34 50 141 60
151 3 3 6 13 6 21 0 8 6 28 14 45 39 86 56 131 56 146 0 9 7 29 15 45 8 15 15
32 15 37 0 11 65 182 85 224 8 17 17 44 21 60 4 17 10 35 14 40 5 6 13 26 18
45 16 52 41 121 57 157 8 17 15 36 15 42 0 6 4 19 8 29 42 86 52 109 52 120 0
8 6 28 14 45 8 18 26 66 40 107 43 127 57 165 67 174 5 6 9 16 9 24 0 8 7 28
15 45 18 41 44 113 55 155 4 18 12 38 18 45 5 7 13 28 17 47 4 19 11 40 15 45
3 6 17 39 30 75 13 36 29 76 35 90 23 46 55 135 55 152 0 8 7 29 15 44 8 16
15 36 15 45 0 8 7 24 15 35 8 10 15 25 15 33 0 8 9 35 21 60 39 85 47 106 52
131 6 28 34 114 47 145 5 11 18 45 30 75 12 30 28 68 36 83 8 16 14 33 14 39
0 6 9 29 19 52 11 23 29 71 40 109 11 37 25 75 30 85 10 17 81 209 109 292 9
25 21 59 29 77 7 17 13 42 13 56 0 14 4 28 9 31 5 3 12 18 16 33 3 14 15 38
26 51 18 24 120 82 170 97 13 4 31 13 39 21 8 7 42 14 75 16 l60 3 -37 17
c-37 16 -38 19 -38 67 0 39 -4 51 -15 51 -8 0 -15 7 -15 15 0 8 -9 15 -20 15
-11 0 -20 7 -20 15 0 11 -12 15 -50 15 l-50 0 0 35 c0 32 -2 35 -30 35 -20 0
-30 5 -30 15 0 12 -14 15 -69 15 -39 0 -73 5 -76 10 -3 6 -21 10 -40 10 -19 0
-37 -4 -40 -10z"/>
<path d="M23640 11790 c0 -17 -7 -20 -50 -20 -38 0 -50 -4 -50 -15 0 -10 -11
-15 -35 -15 -33 0 -35 -2 -35 -35 l0 -35 -50 0 c-38 0 -50 -4 -50 -15 0 -8 -8
-15 -18 -15 -19 0 -42 -18 -42 -32 0 -4 18 -8 39 -8 22 0 46 -6 53 -13 7 -8
26 -17 41 -21 15 -3 27 -10 27 -15 0 -5 13 -12 29 -16 16 -3 32 -13 35 -21 3
-8 18 -14 35 -14 16 0 33 -5 36 -11 4 -5 17 -14 30 -19 27 -10 53 -58 62 -114
3 -23 9 -45 13 -51 4 -5 22 -50 38 -100 80 -234 125 -361 131 -370 4 -5 18
-39 31 -75 13 -36 26 -69 30 -75 4 -5 10 -23 14 -40 7 -29 35 -108 61 -170 7
-16 20 -48 28 -70 9 -22 28 -71 43 -110 15 -38 39 -108 55 -155 15 -47 38
-110 49 -140 12 -30 35 -91 51 -135 16 -44 33 -89 38 -100 6 -11 22 -56 37
-100 42 -123 51 -148 68 -180 9 -16 16 -36 16 -43 0 -7 5 -20 10 -30 14 -23
69 -178 81 -225 5 -21 14 -45 19 -55 17 -31 120 -301 120 -317 0 -8 6 -29 14
-47 8 -18 22 -53 31 -78 9 -25 25 -63 35 -85 10 -22 41 -107 70 -190 28 -82
65 -184 82 -225 36 -89 39 -98 113 -305 32 -88 66 -180 77 -205 11 -25 24 -54
28 -65 5 -11 25 -67 45 -125 32 -93 57 -160 84 -225 21 -49 81 -216 102 -280
12 -38 26 -77 31 -85 4 -8 11 -22 14 -30 3 -8 19 -46 34 -85 16 -38 40 -104
53 -145 14 -42 30 -87 35 -100 6 -14 27 -68 48 -120 20 -52 45 -113 54 -135
40 -90 50 -113 50 -122 0 -11 46 -122 54 -130 10 -10 7 -48 -4 -59 -6 -6 -11
-69 -11 -151 0 -105 -4 -146 -14 -160 -8 -10 -15 -42 -15 -72 0 -48 2 -52 16
-40 21 18 121 49 157 49 20 0 27 5 27 19 0 10 7 24 15 31 8 7 15 21 15 31 0
12 7 19 20 19 13 0 20 7 20 20 0 16 7 20 33 20 33 0 67 24 67 48 0 7 7 12 15
12 8 0 15 8 15 18 0 10 16 33 35 52 28 27 35 42 35 71 0 20 6 42 14 48 8 7 16
28 19 49 3 20 10 60 16 87 13 63 13 502 0 615 -6 47 -12 111 -15 142 -3 31
-12 62 -20 69 -9 8 -14 33 -14 79 0 54 -4 70 -20 85 -12 11 -20 31 -20 52 0
23 -5 33 -15 33 -10 0 -15 10 -15 34 0 18 -7 39 -15 46 -8 7 -15 29 -15 50 0
24 -7 43 -20 55 -12 11 -20 31 -20 52 0 23 -5 33 -15 33 -10 0 -15 10 -15 34
0 18 -7 39 -15 46 -8 7 -15 23 -15 36 0 12 -4 26 -10 29 -5 3 -10 19 -10 34 0
15 -5 32 -12 39 -7 7 -13 30 -14 53 -3 57 -26 129 -41 129 -8 0 -13 13 -13 35
0 28 -4 35 -20 35 -16 0 -20 7 -20 30 0 20 -5 30 -15 30 -10 0 -15 11 -15 35
0 24 -5 35 -15 35 -10 0 -15 10 -15 30 0 17 -9 48 -20 70 -11 22 -20 53 -20
70 0 20 -5 30 -15 30 -10 0 -15 11 -15 35 0 24 -5 35 -15 35 -10 0 -15 10 -15
30 0 18 -8 37 -20 47 -13 12 -20 30 -20 54 0 20 -6 42 -14 48 -8 6 -16 24 -19
39 -3 15 -11 53 -17 85 -10 45 -16 57 -31 57 -15 0 -19 7 -19 35 0 24 -5 35
-15 35 -10 0 -15 11 -15 35 0 24 -5 35 -15 35 -10 0 -15 10 -15 34 0 19 -4 38
-10 41 -5 3 -10 19 -10 34 0 15 -5 32 -12 39 -19 19 -38 84 -38 135 0 35 -4
47 -15 47 -8 0 -15 8 -15 18 0 9 -9 23 -20 30 -14 8 -20 23 -20 47 0 24 -5 35
-15 35 -8 0 -15 8 -15 19 0 10 -7 24 -15 31 -8 7 -15 20 -15 29 0 10 -9 36
-20 59 -11 22 -20 55 -20 72 0 20 -5 30 -15 30 -10 0 -15 10 -15 31 0 17 -16
63 -35 102 -19 39 -35 78 -35 86 0 9 -14 45 -30 79 -21 44 -30 79 -30 113 0
42 -3 49 -20 49 -13 0 -20 7 -20 20 0 11 -7 20 -15 20 -10 0 -15 10 -15 30 0
23 -4 30 -20 30 -14 0 -20 7 -20 24 0 13 -6 29 -14 35 -8 7 -16 31 -19 54 -3
23 -8 53 -11 67 -3 14 -8 46 -11 73 -5 38 -10 47 -26 47 -15 0 -19 7 -19 39 0
22 -6 44 -15 51 -8 7 -15 21 -15 31 0 11 -7 19 -15 19 -10 0 -15 10 -15 30 0
23 -4 30 -20 30 -17 0 -20 7 -20 39 0 22 -6 44 -15 51 -10 8 -15 30 -15 61 0
37 -4 49 -15 49 -11 0 -15 11 -15 40 0 29 -5 43 -20 52 -11 7 -27 34 -37 60
-9 27 -23 48 -30 48 -8 0 -13 14 -13 40 0 29 -5 43 -20 52 -11 7 -20 22 -20
33 0 26 -18 45 -42 45 -14 0 -18 8 -18 35 0 28 -4 35 -20 35 -16 0 -20 7 -20
30 0 20 -5 30 -15 30 -8 0 -15 8 -15 18 0 9 -7 26 -15 36 -8 11 -15 28 -15 38
0 11 -7 18 -20 18 -16 0 -20 7 -20 30 0 18 -5 30 -13 30 -8 0 -22 9 -32 20
-10 11 -26 20 -37 20 -13 0 -18 8 -18 30 0 18 -5 30 -13 30 -8 0 -22 9 -32 20
-10 11 -26 20 -37 20 -10 0 -18 7 -18 15 0 8 -9 15 -19 15 -10 0 -21 7 -25 15
-3 8 -17 15 -31 15 -18 0 -25 5 -25 20 0 11 -7 20 -15 20 -8 0 -15 7 -15 15 0
11 -12 15 -50 15 -38 0 -50 4 -50 15 0 11 -12 15 -50 15 -43 0 -50 3 -50 20 0
18 -7 20 -65 20 -58 0 -65 -2 -65 -20z"/>
<path d="M23250 11490 c-7 -25 -19 -52 -27 -61 -7 -9 -13 -40 -13 -72 0 -50
-2 -57 -20 -57 -17 0 -20 -7 -20 -44 0 -38 3 -45 23 -49 l22 -4 -22 -2 -23 -1
0 -195 c0 -188 1 -195 20 -195 18 0 20 -7 20 -70 0 -40 6 -86 15 -107 8 -19
15 -55 15 -79 0 -32 4 -44 15 -44 12 0 15 -14 15 -70 0 -62 2 -70 19 -70 16 0
20 -11 26 -75 4 -41 11 -77 16 -81 18 -11 39 -77 39 -125 0 -37 5 -54 20 -66
15 -13 20 -30 20 -65 0 -36 4 -48 15 -48 10 0 15 -11 15 -35 0 -24 5 -35 15
-35 10 0 15 -11 15 -35 0 -28 4 -35 20 -35 17 0 20 -7 20 -50 0 -36 4 -50 14
-50 10 0 16 -17 20 -57 2 -32 10 -91 17 -130 10 -59 16 -73 31 -73 15 0 18 -9
18 -54 0 -35 5 -60 15 -70 8 -8 15 -23 15 -34 0 -11 7 -25 15 -32 8 -7 15 -28
15 -46 0 -27 4 -34 20 -34 18 0 20 -7 20 -54 0 -35 5 -58 15 -66 10 -8 15 -30
15 -61 0 -37 4 -49 15 -49 10 0 15 -11 15 -35 0 -28 4 -35 20 -35 18 0 20 -7
20 -57 1 -44 8 -73 30 -118 17 -33 30 -73 30 -90 0 -17 9 -50 20 -73 11 -22
20 -57 20 -77 0 -22 6 -38 15 -41 10 -4 15 -20 15 -45 0 -28 4 -39 15 -39 10
0 15 -10 15 -30 0 -23 4 -30 20 -30 16 0 20 -7 20 -35 0 -24 5 -35 15 -35 11
0 15 -12 15 -49 0 -27 7 -65 15 -84 8 -20 15 -59 15 -87 0 -43 3 -50 20 -50
16 0 20 -7 20 -37 1 -21 7 -49 15 -63 8 -14 14 -35 15 -46 0 -12 7 -27 15 -34
8 -7 15 -27 15 -45 0 -18 8 -43 18 -56 18 -23 39 -102 49 -181 3 -21 11 -42
19 -49 8 -6 14 -20 14 -30 0 -12 7 -19 19 -19 15 0 19 -10 23 -65 3 -37 15
-82 27 -105 11 -22 21 -56 21 -74 0 -18 7 -39 15 -46 8 -7 15 -25 15 -41 0
-15 5 -31 10 -34 6 -3 10 -23 10 -44 0 -22 6 -44 15 -51 8 -7 15 -28 15 -46 0
-24 5 -34 15 -34 10 0 15 -10 15 -30 0 -23 4 -30 20 -30 16 0 20 -7 20 -35 0
-20 7 -52 15 -72 8 -19 15 -43 15 -53 0 -10 7 -23 15 -30 8 -7 15 -20 15 -30
0 -9 9 -25 20 -35 13 -12 20 -31 20 -55 0 -21 7 -43 15 -50 8 -7 15 -28 15
-46 0 -21 5 -34 13 -34 14 0 57 -104 57 -138 0 -13 6 -22 15 -22 8 0 15 -8 15
-18 0 -10 14 -31 31 -48 17 -16 39 -47 49 -69 9 -22 25 -46 34 -54 9 -7 16
-21 16 -30 0 -22 61 -81 83 -81 10 0 17 -8 17 -20 0 -13 7 -20 20 -20 13 0 20
-7 20 -18 0 -23 19 -42 42 -42 11 0 18 -7 18 -20 0 -13 7 -20 20 -20 11 0 20
-7 20 -15 0 -8 7 -15 15 -15 8 0 15 -7 15 -15 0 -8 7 -15 15 -15 8 0 15 -8 15
-19 0 -15 10 -20 45 -25 25 -4 49 -5 54 -2 5 3 11 -1 15 -9 10 -27 26 -16 26
19 0 21 -6 36 -15 40 -8 3 -15 17 -15 31 0 14 -9 42 -20 62 -11 21 -20 47 -20
59 0 12 -7 35 -15 50 -8 16 -15 43 -15 61 0 17 -4 34 -9 38 -5 3 -12 20 -16
38 -6 31 -34 109 -61 174 -8 17 -14 40 -14 50 0 10 -5 24 -11 30 -6 6 -15 29
-20 50 -9 43 -37 130 -49 153 -4 9 -11 35 -15 58 -4 23 -11 42 -15 42 -5 0
-11 15 -15 33 -4 17 -12 41 -19 52 -6 11 -22 54 -35 95 -13 41 -30 89 -38 107
-7 17 -13 42 -13 55 0 13 -6 32 -14 43 -7 11 -17 35 -21 53 -4 18 -13 45 -21
60 -8 15 -14 34 -14 42 0 8 -7 24 -15 34 -8 11 -15 29 -15 41 0 11 -6 29 -14
40 -7 11 -17 40 -21 65 -4 25 -11 50 -15 55 -4 6 -11 25 -15 43 -4 18 -13 45
-21 60 -8 15 -14 34 -14 43 0 8 -7 24 -15 35 -8 10 -15 26 -15 34 0 8 -7 28
-15 43 -8 15 -17 45 -21 65 -4 20 -13 46 -20 57 -8 11 -14 31 -14 45 -1 14 -7
36 -15 50 -8 14 -14 34 -15 45 0 11 -7 33 -15 49 -8 15 -15 33 -15 40 0 6 -9
28 -20 49 -11 20 -20 46 -20 56 0 11 -4 23 -10 26 -5 3 -14 25 -20 48 -6 23
-18 56 -26 74 -8 17 -14 40 -14 51 0 12 -4 23 -9 26 -5 4 -12 25 -16 49 -4 23
-13 51 -20 62 -7 11 -16 36 -20 55 -4 19 -14 44 -21 55 -8 11 -14 29 -14 40 0
11 -7 29 -15 39 -8 11 -15 29 -15 41 0 11 -6 30 -14 41 -8 11 -18 38 -21 60
-4 21 -11 44 -15 49 -5 6 -11 28 -16 49 -4 22 -13 51 -20 65 -8 14 -14 31 -14
36 0 6 -9 28 -20 50 -11 22 -20 48 -20 60 0 11 -7 29 -15 39 -8 11 -15 27 -15
37 0 9 -7 30 -15 45 -8 16 -15 41 -15 55 0 14 -7 34 -15 45 -8 10 -15 33 -15
49 0 17 -9 44 -20 60 -11 17 -20 39 -20 51 0 11 -4 24 -9 30 -11 10 -37 80
-53 139 -6 22 -15 46 -21 53 -5 7 -13 29 -18 50 -14 65 -39 146 -54 179 -8 17
-15 38 -15 46 0 8 -7 20 -15 27 -8 7 -15 25 -15 41 0 15 -4 30 -9 33 -5 3 -21
45 -36 93 -15 49 -33 102 -41 120 -8 17 -14 43 -14 57 0 14 -4 26 -9 26 -4 0
-20 39 -36 88 -15 48 -33 99 -41 114 -8 14 -14 35 -14 46 0 12 -4 23 -9 26 -5
3 -15 30 -21 58 -7 29 -16 58 -20 63 -4 6 -11 28 -15 49 -3 22 -13 49 -21 60
-8 11 -14 31 -14 43 0 13 -4 23 -10 23 -5 0 -14 18 -20 39 -6 22 -17 52 -25
68 -8 15 -15 37 -15 48 0 11 -7 29 -15 39 -8 11 -15 34 -15 52 0 17 -7 37 -15
44 -8 7 -15 24 -15 39 0 14 -9 46 -20 70 -11 24 -20 53 -20 66 0 13 -7 25 -15
29 -8 3 -15 17 -15 32 0 15 -8 32 -17 39 -11 8 -19 33 -23 66 l-6 54 -14 -45z"/>
<path d="M15630 11473 c0 -16 -7 -38 -15 -49 -8 -10 -15 -26 -15 -35 0 -9 -9
-28 -20 -42 -11 -14 -20 -35 -20 -46 0 -12 -9 -38 -20 -58 -11 -21 -20 -45
-20 -53 0 -8 -7 -24 -15 -34 -8 -11 -15 -32 -15 -47 0 -14 -7 -32 -15 -39 -8
-7 -15 -27 -15 -44 0 -18 -7 -41 -15 -52 -8 -10 -15 -28 -15 -39 0 -11 -9 -38
-20 -60 -11 -22 -19 -47 -20 -56 0 -9 -7 -22 -15 -29 -8 -7 -15 -25 -15 -40 0
-15 -7 -33 -15 -40 -8 -7 -15 -20 -15 -29 0 -22 -38 -149 -56 -184 -8 -16 -14
-40 -14 -53 0 -13 -9 -41 -20 -61 -11 -21 -20 -45 -20 -55 0 -9 -4 -20 -10
-23 -5 -3 -14 -24 -20 -45 -6 -22 -15 -40 -20 -40 -6 0 -10 -15 -10 -33 0 -18
-6 -41 -14 -52 -7 -11 -16 -39 -19 -61 -4 -23 -14 -54 -22 -70 -8 -16 -15 -36
-15 -44 0 -9 -6 -24 -14 -35 -7 -11 -16 -31 -19 -45 -10 -44 -47 -144 -57
-154 -6 -6 -10 -22 -10 -36 0 -14 -6 -34 -14 -45 -7 -11 -16 -36 -19 -55 -6
-43 -44 -151 -57 -164 -6 -6 -10 -20 -10 -32 0 -13 -7 -29 -15 -38 -8 -8 -15
-26 -15 -40 0 -13 -6 -31 -14 -38 -7 -8 -17 -34 -21 -59 -4 -24 -13 -54 -21
-66 -8 -12 -14 -35 -14 -51 0 -15 -7 -37 -15 -48 -8 -10 -15 -31 -15 -45 0
-14 -7 -34 -15 -45 -8 -10 -15 -26 -15 -34 0 -8 -9 -32 -20 -53 -11 -20 -20
-45 -20 -56 0 -10 -7 -24 -15 -31 -8 -7 -15 -27 -15 -44 0 -17 -6 -40 -14 -51
-7 -11 -16 -38 -20 -60 -4 -21 -14 -52 -22 -67 -8 -15 -14 -36 -14 -47 0 -11
-7 -26 -15 -35 -8 -8 -15 -21 -15 -28 0 -21 -47 -149 -59 -161 -6 -6 -11 -22
-11 -36 0 -15 -7 -39 -15 -55 -8 -15 -15 -38 -15 -50 0 -11 -6 -33 -14 -47 -7
-14 -16 -39 -20 -55 -6 -27 -21 -63 -52 -127 -8 -16 -14 -36 -14 -46 0 -9 -6
-25 -14 -36 -7 -11 -17 -40 -21 -65 -4 -25 -14 -57 -21 -72 -8 -15 -14 -34
-14 -42 0 -8 -5 -27 -12 -43 -6 -15 -23 -63 -38 -106 -15 -43 -32 -83 -38 -89
-7 -7 -12 -24 -12 -39 0 -15 -7 -32 -15 -39 -8 -7 -15 -20 -15 -30 0 -24 -39
-150 -56 -182 -8 -14 -14 -37 -14 -51 0 -13 -7 -30 -15 -37 -8 -7 -15 -21 -15
-32 0 -11 -6 -34 -14 -51 -33 -79 -56 -144 -56 -161 0 -10 -6 -30 -14 -44 -15
-29 -56 -160 -56 -178 0 -6 -7 -17 -15 -24 -8 -7 -15 -25 -15 -40 0 -15 -7
-33 -15 -40 -8 -7 -15 -21 -15 -32 0 -10 -6 -31 -14 -46 -7 -15 -16 -46 -20
-68 -3 -23 -13 -54 -21 -70 -8 -16 -15 -40 -15 -54 0 -14 -6 -34 -14 -45 -7
-11 -16 -37 -20 -57 -4 -21 -11 -38 -16 -38 -5 0 -12 -20 -15 -44 -4 -25 -13
-47 -21 -50 -8 -3 -14 -20 -14 -41 0 -24 -4 -35 -15 -35 -9 0 -15 -9 -15 -25
0 -32 18 -32 26 0 5 21 12 25 44 25 32 0 44 7 79 45 22 24 41 51 41 60 0 22
69 95 91 95 12 0 19 7 19 20 0 13 7 20 20 20 12 0 20 7 20 17 0 24 57 137 80
158 11 10 20 28 20 40 0 13 7 28 15 35 8 7 15 21 15 31 0 11 7 19 15 19 9 0
15 9 15 24 0 23 32 116 51 146 5 8 12 22 15 30 3 8 12 27 20 42 8 14 14 33 14
42 0 9 8 16 20 16 17 0 20 7 20 50 0 34 8 67 24 98 14 27 27 76 31 115 6 56
10 67 26 67 16 0 19 8 19 50 0 38 4 50 15 50 10 0 15 11 15 35 0 23 5 35 14
35 8 0 16 14 19 33 3 17 10 50 16 72 5 22 13 54 17 70 4 17 13 34 20 38 8 5
14 25 14 47 0 29 4 40 15 40 9 0 15 9 15 24 0 13 9 45 20 71 11 26 20 59 20
75 0 15 7 33 15 40 8 7 15 27 15 45 0 18 7 49 15 68 8 20 15 52 15 72 0 28 4
35 20 35 16 0 20 7 20 34 0 18 7 39 15 46 9 7 15 29 15 51 0 28 4 39 15 39 10
0 15 10 15 30 0 22 5 30 18 30 15 0 20 13 29 73 6 39 16 90 23 112 6 22 14 54
17 70 3 17 12 39 19 50 8 11 14 30 14 42 0 13 5 23 10 23 6 0 10 23 10 50 0
38 4 50 15 50 10 0 15 11 15 35 0 24 5 35 15 35 10 0 15 10 15 28 0 16 9 47
20 70 11 22 20 54 20 70 0 15 7 37 15 48 8 10 15 33 15 50 0 17 7 37 15 44 8
7 15 20 15 29 0 10 9 36 20 59 11 22 20 54 20 70 0 15 7 37 15 48 8 10 15 31
15 45 0 15 7 43 15 62 8 20 15 61 15 92 0 48 2 55 20 55 11 0 20 7 20 15 0 8
7 15 15 15 11 0 15 12 15 50 0 38 4 50 15 50 10 0 15 11 15 35 0 19 5 35 10
35 6 0 10 13 10 29 0 16 11 52 25 79 14 28 25 64 25 80 0 17 5 42 11 56 9 19
9 29 0 39 -9 11 -8 17 4 27 10 8 15 30 15 66 0 47 2 54 20 54 13 0 20 7 20 19
0 10 7 24 15 31 8 7 15 28 15 46 0 24 5 34 15 34 10 0 15 10 15 30 0 17 5 40
12 53 6 12 15 30 20 39 4 10 8 40 8 67 0 31 5 53 15 61 9 7 15 29 15 51 0 28
4 39 15 39 9 0 15 9 15 25 0 14 9 45 20 67 14 28 20 62 20 105 0 48 3 63 14
63 11 0 16 20 21 78 11 134 14 541 4 547 -5 4 -9 -7 -9 -22z"/>
<path d="M19095 10731 c-55 -11 -139 -26 -186 -34 -47 -8 -100 -22 -117 -31
-17 -9 -45 -16 -61 -16 -31 0 -151 -44 -218 -80 -21 -11 -47 -20 -58 -20 -11
0 -46 -17 -77 -39 -31 -21 -95 -58 -143 -82 -47 -23 -97 -53 -110 -65 -14 -13
-39 -31 -56 -41 -17 -10 -44 -29 -59 -43 -14 -14 -63 -55 -107 -92 -84 -70
-323 -320 -323 -338 0 -5 -8 -18 -17 -28 -30 -29 -176 -254 -187 -287 -6 -17
-18 -42 -27 -55 -15 -24 -29 -53 -84 -175 -49 -110 -110 -312 -125 -415 -5
-30 -18 -111 -30 -180 -19 -109 -21 -150 -17 -345 4 -229 21 -356 67 -530 12
-44 26 -100 31 -124 5 -25 18 -63 28 -85 10 -23 28 -66 39 -96 32 -88 138
-298 195 -387 194 -305 500 -600 795 -767 35 -20 69 -36 75 -36 6 0 18 -7 27
-15 23 -21 149 -85 167 -85 9 0 24 -6 32 -14 24 -21 317 -113 396 -125 252
-37 520 -56 605 -42 36 6 94 11 130 11 36 1 101 7 145 15 44 8 94 15 111 15
17 0 57 9 89 20 32 11 66 20 76 20 10 0 42 11 71 24 29 13 71 29 93 36 39 12
160 69 295 140 214 111 472 326 659 546 105 123 292 394 321 464 5 14 17 37
26 52 8 15 23 51 34 80 10 29 30 85 45 123 31 79 73 235 85 310 4 28 18 97 30
155 19 88 23 138 24 315 0 116 -3 237 -7 270 -12 93 -47 264 -67 330 -10 33
-21 83 -25 110 -4 28 -11 55 -14 60 -4 6 -20 44 -35 85 -52 144 -159 355 -216
430 -15 19 -30 45 -34 56 -4 12 -15 29 -26 39 -11 10 -20 22 -20 26 0 16 -237
281 -303 339 -29 24 -84 74 -122 110 -39 36 -84 72 -100 80 -17 8 -39 22 -50
31 -26 23 -239 146 -267 155 -11 3 -42 19 -67 33 -25 15 -73 37 -106 49 -33
11 -85 29 -115 40 -104 37 -235 71 -360 93 -177 32 -605 37 -755 10z m683 -94
c68 -8 129 -20 135 -26 6 -6 25 -11 42 -11 16 0 42 -6 57 -14 14 -8 44 -17 65
-21 52 -8 142 -40 156 -54 6 -6 17 -11 25 -11 8 0 28 -6 45 -14 84 -38 131
-56 144 -56 7 0 16 -7 19 -15 4 -8 13 -15 22 -15 8 0 34 -16 58 -35 23 -19 49
-35 58 -35 8 0 18 -5 21 -10 4 -6 21 -16 38 -24 18 -7 41 -22 52 -33 11 -10
42 -34 68 -52 26 -18 66 -50 89 -72 23 -21 44 -39 48 -39 17 0 285 -293 309
-337 7 -15 22 -36 33 -47 28 -31 86 -120 98 -152 6 -16 14 -31 18 -34 13 -9
59 -98 117 -225 36 -77 60 -149 70 -210 4 -21 13 -52 21 -67 8 -15 14 -38 14
-51 0 -13 7 -32 15 -43 8 -10 15 -35 15 -54 0 -19 8 -55 17 -80 15 -39 17 -89
17 -370 -1 -279 -3 -331 -17 -369 -9 -24 -17 -58 -17 -75 0 -18 -7 -41 -15
-52 -8 -10 -15 -28 -15 -39 0 -11 -9 -47 -19 -80 -11 -33 -27 -87 -36 -120
-18 -63 -31 -94 -90 -215 -59 -120 -98 -191 -138 -250 -71 -105 -127 -184
-135 -189 -4 -3 -18 -19 -31 -36 -37 -49 -206 -220 -242 -246 -19 -13 -38 -28
-44 -34 -5 -6 -32 -29 -60 -50 -27 -22 -56 -45 -63 -52 -7 -7 -18 -13 -23 -13
-5 0 -15 -5 -22 -10 -22 -19 -178 -120 -185 -120 -3 0 -40 -16 -82 -36 -98
-48 -123 -58 -195 -85 -33 -12 -69 -25 -80 -30 -84 -35 -189 -60 -370 -86
-152 -23 -521 -23 -665 -1 -145 23 -258 46 -280 58 -10 5 -27 10 -37 10 -10 0
-31 7 -47 15 -15 8 -33 15 -40 15 -6 1 -29 9 -51 20 -22 11 -45 19 -52 20 -6
0 -51 20 -100 45 -48 24 -99 49 -113 55 -14 6 -34 16 -45 23 -36 22 -80 51
-85 57 -3 3 -36 24 -75 47 -38 23 -83 54 -100 70 -16 15 -52 46 -80 68 -208
166 -449 481 -571 745 -9 19 -27 58 -39 85 -13 28 -27 63 -31 79 -4 16 -13 41
-20 55 -8 14 -14 32 -14 40 0 7 -7 36 -16 65 -37 116 -43 144 -49 201 -4 33
-10 74 -15 90 -5 17 -14 104 -19 195 -8 131 -8 195 4 310 16 161 38 309 53
355 6 17 15 50 22 75 32 128 63 209 147 380 42 85 91 173 108 195 17 22 40 56
51 75 35 64 168 226 260 315 98 96 163 155 171 155 5 0 16 8 25 18 15 16 34
32 86 70 13 9 33 25 44 35 12 9 29 17 39 17 9 0 19 4 21 8 3 7 24 21 136 89
21 13 48 27 62 33 55 23 67 28 111 49 25 11 53 21 61 21 9 0 21 6 27 14 6 8
24 16 39 19 41 9 153 42 185 55 16 7 40 12 53 12 14 0 34 5 46 11 11 6 88 19
172 29 175 21 416 20 614 -3z"/>
<path d="M19750 8885 c-9 -11 -32 -15 -81 -15 -37 0 -94 -7 -126 -16 -32 -9
-80 -21 -108 -26 -27 -5 -64 -14 -81 -19 -17 -5 -81 -9 -142 -9 -93 0 -112 -3
-112 -15 0 -12 -15 -15 -79 -15 -67 0 -80 -3 -84 -17 -4 -17 -5 -17 -6 0 0 9
-8 17 -16 17 -8 0 -15 7 -15 15 0 11 -13 15 -53 15 l-53 0 0 -242 c1 -228 3
-246 23 -288 12 -25 25 -60 28 -79 4 -20 25 -54 50 -80 25 -28 69 -100 110
-181 37 -74 73 -142 81 -150 27 -30 69 -86 80 -105 12 -24 103 -71 162 -84 37
-8 49 -5 94 17 29 14 80 54 114 88 52 53 73 87 147 238 48 97 87 183 87 190 0
7 7 19 15 26 8 7 15 23 15 35 0 12 7 28 15 35 8 7 15 27 15 44 0 17 9 47 19
67 24 44 44 257 35 362 -8 87 -30 135 -82 176 -34 27 -41 29 -52 16z"/>
<path d="M34748 8847 c-26 -18 -69 -61 -95 -96 -52 -70 -60 -105 -62 -248 -1
-46 -6 -75 -13 -80 -7 -4 -69 -11 -138 -14 -170 -9 -209 -20 -280 -74 -33 -26
-60 -50 -60 -55 0 -5 -7 -16 -16 -24 -8 -9 -24 -41 -35 -71 -28 -80 -27 -316
1 -406 11 -35 24 -66 28 -69 4 -3 19 -20 32 -39 27 -39 35 -82 55 -286 16
-170 29 -290 50 -485 20 -175 34 -312 51 -485 15 -155 27 -272 49 -475 24
-218 35 -318 45 -440 6 -63 17 -161 25 -216 8 -56 15 -126 15 -155 0 -29 6
-96 14 -149 13 -87 21 -157 46 -430 8 -88 17 -169 55 -515 19 -171 33 -315 45
-450 6 -60 14 -137 20 -170 5 -33 12 -96 15 -140 3 -44 12 -136 20 -205 18
-154 33 -299 46 -450 5 -63 13 -138 19 -166 5 -28 11 -91 15 -140 3 -49 12
-138 20 -199 13 -102 23 -201 45 -450 5 -55 15 -136 22 -180 7 -44 13 -142 13
-218 l0 -138 35 -9 c25 -7 3346 -16 3592 -10 14 0 17 14 21 93 4 93 18 241 37
397 6 47 15 130 20 185 8 97 18 190 40 385 6 52 15 145 20 205 6 61 15 144 21
185 6 41 15 122 19 180 8 100 16 177 40 390 6 52 18 163 25 245 8 83 19 177
25 210 5 33 10 83 10 110 0 28 6 102 14 165 18 138 33 277 51 465 7 77 18 181
23 230 6 50 18 162 27 250 8 88 22 214 30 280 8 66 17 154 20 195 3 41 12 131
20 200 25 214 37 331 45 440 4 58 13 132 18 165 6 33 14 105 17 160 4 55 13
138 21 184 8 46 14 107 14 135 0 28 6 103 14 166 17 129 30 254 51 475 7 83
16 157 19 165 3 8 10 69 15 136 8 113 20 157 51 184 3 3 16 21 28 42 19 31 24
56 29 165 3 70 3 167 -1 214 -7 77 -12 93 -44 143 -73 111 -183 156 -377 156
-65 0 -105 4 -113 12 -7 7 -12 45 -12 98 0 48 -6 107 -14 132 -21 71 -81 153
-141 192 l-53 36 -1829 0 -1828 -1 -47 -32z m3637 -116 c35 -13 60 -31 83 -61
l33 -42 -3 -107 -3 -106 -1858 -3 c-1270 -1 -1864 1 -1878 8 -16 9 -19 22 -19
79 0 86 22 159 57 193 61 59 -43 56 1823 57 1654 1 1717 0 1765 -18z m580
-497 c86 -46 105 -92 105 -251 0 -137 -16 -182 -83 -235 l-41 -33 -2294 -3
c-1531 -1 -2307 1 -2332 8 -21 6 -57 28 -81 49 l-44 39 0 175 c0 173 0 176 25
202 32 35 75 57 125 66 22 4 1062 6 2310 5 l2270 -1 40 -21z m-29 -688 c7 -18
-24 -377 -51 -581 -8 -60 -17 -148 -20 -195 -3 -47 -10 -112 -15 -145 -6 -33
-14 -109 -20 -170 -24 -267 -32 -347 -45 -450 -7 -60 -19 -162 -24 -225 -25
-264 -31 -305 -48 -317 -13 -10 -448 -13 -2095 -13 -1968 0 -2078 1 -2087 18
-11 22 -28 135 -41 277 -14 161 -29 305 -46 435 -8 63 -14 138 -14 165 0 28
-5 77 -11 110 -5 33 -16 128 -24 210 -8 83 -19 193 -25 245 -21 189 -32 287
-41 390 -5 58 -14 135 -20 172 -6 37 -8 72 -4 78 4 7 728 10 2316 10 1942 0
2310 -2 2315 -14z m-443 -4288 c3 -12 0 -74 -8 -137 -18 -152 -33 -294 -50
-466 -13 -138 -22 -223 -50 -480 -29 -266 -41 -385 -75 -735 -17 -174 -18
-177 -43 -184 -12 -3 -756 -6 -1653 -6 -1320 0 -1634 2 -1642 13 -14 16 -35
190 -77 612 -20 207 -34 336 -51 465 -8 63 -14 138 -14 165 0 28 -6 91 -14
140 -8 50 -17 133 -21 185 -4 52 -13 138 -21 190 -15 100 -19 242 -7 253 3 4
842 7 1864 7 l1857 0 5 -22z"/>
<path d="M34951 2983 c-24 -16 -24 -18 -18 -137 4 -67 11 -146 17 -176 5 -30
14 -109 20 -175 16 -201 30 -344 45 -465 8 -63 19 -169 25 -235 7 -66 15 -147
20 -180 5 -33 9 -85 9 -115 1 -36 8 -66 21 -87 17 -28 25 -33 60 -33 77 0 93
42 69 190 -5 36 -16 133 -24 215 -8 83 -21 215 -29 295 -8 80 -20 195 -26 255
-6 61 -15 148 -21 195 -5 47 -16 155 -23 240 -8 85 -19 167 -25 182 -18 48
-76 63 -120 31z"/>
<path d="M25321 5553 c1 -10 5 -29 9 -43 7 -21 8 -19 9 18 1 23 -3 42 -9 42
-5 0 -10 -8 -9 -17z"/>
<path d="M9591 2921 c-8 -15 -8 -22 1 -28 7 -4 612 -9 1343 -10 915 -1 1385
-6 1505 -14 272 -19 4693 -31 4975 -14 l160 9 -115 9 c-63 5 -772 10 -1575 12
-882 2 -1510 7 -1585 13 -76 6 -634 11 -1430 11 -718 1 -1386 5 -1485 10 -99
6 -541 13 -982 16 -795 6 -802 6 -812 -14z"/>
<path d="M18138 2851 c-58 -3 -109 -9 -113 -12 -13 -14 489 -21 1750 -24 745
-1 1396 -7 1510 -13 115 -6 924 -13 1910 -17 941 -3 1838 -10 1995 -15 278
-10 3055 -34 3899 -35 386 0 424 1 427 16 1 12 -8 19 -29 23 -17 3 -706 11
-1531 17 -826 5 -1544 12 -1596 14 -52 3 -779 7 -1615 10 -836 3 -1603 9
-1705 15 -279 15 -4687 35 -4902 21z"/>
<path d="M29703 2733 c20 -2 54 -2 75 0 20 2 3 4 -38 4 -41 0 -58 -2 -37 -4z"/>
</g>
</svg>
